HIERARCHY
ROOT Hips
{
	OFFSET -3.958830 18.904000 13.208200
	CHANNELS 6 Xposition Yposition Zposition Zrotation Yrotation Xrotation 
	JOINT LHipJoint
	{
		OFFSET 0.000000 0.000000 0.000000
		CHANNELS 3 Zrotation Yrotation Xrotation
		JOINT LeftUpLeg
		{
			OFFSET 1.800000 -1.400000 0.085000
			CHANNELS 3 Zrotation Yrotation Xrotation
			JOINT LeftLeg
			{
				OFFSET 2.215000 -6.000000 0.000000
				CHANNELS 3 Zrotation Yrotation Xrotation
				JOINT LeftFoot
				{
					OFFSET 2.500000 -6.900000 0.000000
					CHANNELS 3 Zrotation Yrotation Xrotation
					JOINT LeftToeBase
					{
						OFFSET 0.200000 -0.500000 1.950000
						CHANNELS 3 Zrotation Yrotation Xrotation
						End Site
						{
							OFFSET 0.000000 0.000000 0.000000
						}
					}
				}
			}
		}
	}
	JOINT RHipJoint
	{
		OFFSET 0.000000 0.000000 0.000000
		CHANNELS 3 Zrotation Yrotation Xrotation
		JOINT RightUpLeg
		{
			OFFSET -1.800000 -1.400000 0.085000
			CHANNELS 3 Zrotation Yrotation Xrotation
			JOINT RightLeg
			{
				OFFSET -2.215000 -6.000000 0.000000
				CHANNELS 3 Zrotation Yrotation Xrotation
				JOINT RightFoot
				{
					OFFSET -2.500000 -6.900000 0.000000
					CHANNELS 3 Zrotation Yrotation Xrotation
					JOINT RightToeBase
					{
						OFFSET -0.200000 -0.500000 1.950000
						CHANNELS 3 Zrotation Yrotation Xrotation
						End Site
						{
							OFFSET 0.000000 0.000000 0.000000
						}
					}
				}
			}
		}
	}
	JOINT LowerBack
	{
		OFFSET 0.000000 0.000000 0.000000
		CHANNELS 3 Zrotation Yrotation Xrotation
		JOINT Spine
		{
			OFFSET -0.087000 1.940000 -0.288900
			CHANNELS 3 Zrotation Yrotation Xrotation
			JOINT Spine1
			{
				OFFSET 0.000000 1.950000 0.060000
				CHANNELS 3 Zrotation Yrotation Xrotation
				JOINT Neck
				{
					OFFSET 0.000000 0.000000 0.000000
					CHANNELS 3 Zrotation Yrotation Xrotation
					JOINT Neck1
					{
						OFFSET 0.000000 1.600000 0.340000
						CHANNELS 3 Zrotation Yrotation Xrotation
						JOINT Head
						{
							OFFSET 0.000000 1.667000 -0.240000
							CHANNELS 3 Zrotation Yrotation Xrotation
							End Site
							{
								OFFSET 0.000000 0.000000 0.000000
							}
						}
					}
				}
				JOINT LeftShoulder
				{
					OFFSET 0.000000 0.000000 0.000000
					CHANNELS 3 Zrotation Yrotation Xrotation
					JOINT LeftArm
					{
						OFFSET 2.700000 1.550000 -0.730000
						CHANNELS 3 Zrotation Yrotation Xrotation
						JOINT LeftForeArm
						{
							OFFSET 5.450000 0.000000 0.000000
							CHANNELS 3 Zrotation Yrotation Xrotation
							JOINT LeftHand
							{
								OFFSET 3.450000 0.000000 0.000000
								CHANNELS 3 Zrotation Yrotation Xrotation
								JOINT LeftHandIndex1
								{
									OFFSET 0.750000 0.000000 0.000000
									CHANNELS 3 Zrotation Yrotation Xrotation
									End Site
									{
										OFFSET 0.000000 0.000000 0.000000
									}
								}
							}
						}
					}
				}
				JOINT RightShoulder
				{
					OFFSET 0.000000 0.000000 0.000000
					CHANNELS 3 Zrotation Yrotation Xrotation
					JOINT RightArm
					{
						OFFSET -2.700000 1.550000 -0.730000
						CHANNELS 3 Zrotation Yrotation Xrotation
						JOINT RightForeArm
						{
							OFFSET -5.450000 0.000000 0.000000
							CHANNELS 3 Zrotation Yrotation Xrotation
							JOINT RightHand
							{
								OFFSET -3.450000 0.000000 0.000000
								CHANNELS 3 Zrotation Yrotation Xrotation
								JOINT RightHandIndex1
								{
									OFFSET -0.750000 0.000000 0.000000
									CHANNELS 3 Zrotation Yrotation Xrotation
									End Site
									{
										OFFSET 0.000000 0.000000 0.000000
									}
								}
							}
						}
					}
				}
			}
		}
	}
}
MOTION
Frames: 8
Frame Time: 0.016667
0.481450 18.224430 -3.324790 -14.251903 34.386113 -14.472423 -15.396957 13.455335 2.348704 9.698181 -0.705360 -8.423759 -6.556872 6.647009 15.124301 -0.547577 4.793593 3.122723 0.355970 -0.106770 0.038050 18.077552 -9.708314 4.150029 -16.728099 6.526139 -36.315572 14.424793 -17.878165 52.585078 -1.243372 -9.553804 1.312482 0.006330 0.465340 0.110030 -3.809896 -2.772538 -8.442409 9.944626 -4.033738 16.378527 -0.469857 -2.590589 7.025474 1.343312 -2.459868 -11.815117 -9.098832 -4.370332 41.557415 6.568880 -13.085680 -5.971550 -17.437576 -18.171698 6.256121 -40.417579 -16.172113 0.869399 -51.182007 -53.136935 21.959566 -3.564774 3.288938 0.624940 0.120940 -0.254270 0.330550 15.047166 19.862276 7.776490 20.753013 9.112657 -5.575894 20.163609 43.594229 6.922016 1.822626 -1.429867 -0.328670 0.341470 0.074250 -0.150090 
0.492190 18.213330 -3.319550 -13.998604 34.207063 -14.187192 -15.414645 13.556603 2.521137 9.479415 -0.707305 -8.320236 -7.399298 6.653573 14.086013 -0.580749 4.812195 3.124415 0.363510 -0.104310 0.055490 18.011730 -9.941233 3.841117 -15.129267 6.105606 -34.511980 12.601796 -14.796987 47.408397 -0.920103 -8.231713 1.714434 0.027820 0.467450 0.096190 -3.689288 -2.714990 -8.308165 9.272561 -3.477379 15.642444 0.460255 -2.202187 7.461507 1.350412 -2.092985 -11.784676 -8.363233 -4.669141 41.447006 6.076240 -12.813060 -6.200260 -16.972046 -18.610557 6.164628 -41.224906 -17.840484 1.904275 -50.236925 -51.896991 20.987401 -3.574763 3.251081 0.639330 0.124730 -0.261750 0.328230 14.655077 20.208090 7.772822 20.189961 9.922759 -5.250426 17.395001 42.018587 5.881115 1.802237 -1.389942 -0.357450 0.364610 0.075750 -0.168870 
0.506230 18.167590 -3.309400 -13.135982 34.473839 -12.914406 -15.439221 13.553095 2.711427 8.478841 -0.770173 -8.412265 -8.579128 6.482780 12.196843 -0.625548 4.769449 3.160722 0.392180 -0.058940 0.047110 17.964865 -10.216610 3.435036 -13.843497 5.060481 -32.709074 10.480957 -11.211852 39.381046 -0.505845 -6.473672 2.288866 0.084610 0.519440 0.106240 -3.582972 -2.492217 -8.023203 7.884489 -2.905708 13.435327 1.455510 -2.079413 8.514639 1.125453 -1.640790 -11.069478 -7.012686 -5.126412 39.533106 5.574590 -12.544370 -6.566980 -15.503331 -18.335573 5.835366 -42.943642 -20.538652 3.819090 -48.955940 -51.229728 20.249145 -3.631628 3.249011 0.601350 0.174130 -0.297460 0.350810 13.734494 19.771573 6.907397 20.027817 13.442860 -3.591645 13.565817 38.084891 4.409212 1.786877 -1.343038 -0.370340 0.395430 0.079600 -0.158560 
0.519220 18.108540 -3.305500 -12.469073 34.690135 -11.828867 -15.470815 13.557337 2.888335 7.599485 -0.811419 -8.520874 -9.710200 6.380253 10.680839 -0.664504 4.774116 3.179054 0.420750 -0.016550 0.047660 17.911458 -10.466060 3.053679 -12.026666 4.036480 -30.566949 7.825608 -7.891151 30.731653 -0.154768 -4.753783 2.888286 0.149670 0.559010 0.108920 -3.446425 -2.296075 -7.747759 6.535808 -2.275596 11.368129 2.804137 -1.882237 9.498059 0.948557 -1.179594 -10.655634 -5.674188 -5.600115 37.601292 3.933700 -11.995750 -5.689260 -14.375185 -18.772671 5.633002 -44.458952 -23.497984 5.982711 -48.163525 -50.591733 19.808960 -3.682798 3.269815 0.548690 0.228340 -0.343830 0.373330 13.092624 20.112497 6.413303 19.239739 16.511685 -1.925856 9.796829 33.642444 3.020771 1.786422 -1.334849 -0.390470 0.407640 0.072100 -0.156550 
0.528660 18.032940 -3.301630 -10.774181 35.305594 -10.106870 -15.553426 13.524230 2.991517 5.684820 -0.868634 -8.719598 -10.160998 6.153491 9.584809 -0.716417 4.726685 3.235817 0.423750 -0.015190 0.040670 17.836520 -10.570581 2.808237 -11.878989 2.901348 -28.804515 6.401519 -5.883462 22.758940 0.063758 -3.640320 3.302909 0.195710 0.629500 0.115160 -3.152108 -2.235888 -7.498797 3.303804 -1.490853 9.226309 4.882348 -1.645877 10.369182 0.584369 -0.367546 -10.427964 -3.832930 -6.144818 36.079764 2.430250 -11.577170 -4.181320 -13.040280 -19.509331 5.544493 -45.862209 -26.410613 8.225976 -47.491088 -50.424470 19.647543 -3.755622 3.271652 0.494620 0.302090 -0.405900 0.393410 12.749155 20.625653 6.033977 18.760001 19.427873 -0.186351 7.066204 29.215554 2.009782 1.796639 -1.328466 -0.426620 0.433690 0.079260 -0.155650 
0.536450 17.952640 -3.304550 -9.881085 36.491619 -8.714586 -15.589230 13.415955 2.969733 4.065086 -1.080059 -9.833839 -9.916534 6.061954 10.085866 -0.798066 4.663479 3.286948 0.405860 -0.025620 0.025690 17.825962 -10.602195 2.732195 -11.935096 2.332553 -27.869297 5.850285 -4.920745 17.726118 0.173723 -3.188262 3.488372 0.239750 0.709450 0.108920 -3.065676 -2.054943 -7.303731 1.261069 -1.127182 7.411151 6.326075 -1.696755 11.071175 0.267243 0.832507 -10.352942 -1.199506 -6.799739 34.153996 1.032390 -10.985900 -2.891800 -11.243496 -20.394267 5.608668 -47.437942 -28.951763 10.100069 -46.975041 -51.191526 19.822348 -3.843869 3.256871 0.434470 0.384930 -0.475680 0.400290 11.704048 20.823590 5.618967 20.176312 22.592504 1.551057 3.199787 25.292347 0.800891 1.797605 -1.323603 -0.474720 0.476820 0.100330 -0.158190 
0.533780 17.891780 -3.311140 -8.838500 37.412972 -7.832988 -15.627591 13.358996 2.969537 2.728513 -1.152472 -10.336487 -9.749493 6.047317 10.540806 -0.857111 4.644743 3.304662 0.367710 -0.043830 -0.030450 17.803525 -10.607006 2.695110 -12.025769 2.082193 -27.001869 5.722598 -4.542293 15.408829 0.225263 -3.074739 3.550342 0.263920 0.776860 0.097050 -2.952888 -1.990640 -7.204118 -0.796860 -0.685065 6.670448 7.766272 -1.593945 11.952646 -0.109889 1.468514 -10.695228 0.187017 -7.053594 33.521478 0.703470 -10.911080 -2.427770 -9.661555 -21.798294 5.794916 -49.305980 -30.954434 11.058957 -45.358921 -50.833951 18.602024 -3.906340 3.220690 0.403760 0.439090 -0.526130 0.399390 11.015587 22.107680 5.753429 21.486540 24.900136 2.337725 -0.947721 22.702235 -0.269496 1.778705 -1.318529 -0.515390 0.522010 0.144740 -0.151240 
0.527790 17.850620 -3.316260 -8.866997 38.891991 -7.699390 -15.625612 13.343877 2.984368 2.589009 -1.319759 -11.114518 -9.900394 6.212949 11.370925 -0.910618 4.726578 3.285051 0.328100 -0.121610 -0.045860 17.798152 -10.669024 2.673332 -11.120627 2.200865 -26.407518 5.328850 -4.481139 15.790304 0.247044 -3.072079 3.557479 0.245590 0.821180 0.086500 -2.999043 -1.901362 -7.203847 -0.796491 -0.567152 6.720313 8.029841 -1.560826 12.123779 -0.524339 1.745864 -10.955010 0.744446 -7.527203 33.253823 1.320210 -11.657800 -2.311370 -9.624985 -23.193242 5.882853 -49.347363 -32.175544 11.627818 -46.031523 -50.913414 18.947439 -3.940001 3.178411 0.427060 0.450600 -0.564570 0.383020 11.799620 23.254408 6.025336 23.208381 25.705138 1.620600 -4.927506 23.897322 -1.232107 1.717916 -1.328733 -0.566290 0.558760 0.191000 -0.168370 
